# xmcd
#
# Track frame offsets:
#	150
#	15336
#	29512
#	43130
#	63619
#	79603
#	94664
#	115291
#	135503
#	150130
#	169176
#	182692
#	199528
#	215902
#	232613
#	254830
#	271619
#	286408
#	300348
#	318688
#
# Disc length: 4453 seconds
#
# Revision: 1
# Processed by: cddbd v1.5.2PL0 Copyright (c) Steve Scherf et al.
# Submitted via: audiograbber 1.83.01
#
DISCID=0b116314
DTITLE=Juhamatti - 40 Unohtumatonta Laulua [CD1)
DYEAR=2007
DGENRE=Pop
TTITLE0=Fanny Fanny
TTITLE1=Hiljaa
TTITLE2=Niin
TTITLE3=Anna
TTITLE4=Rakkautta Vaan
TTITLE5=Hurmaava Nainen
TTITLE6=Volga
TTITLE7=Ole Sellainen Kuin oot
TTITLE8=Rakasta Mua Juuri Näin
TTITLE9=En Saa Sua Puhumaan
TTITLE10=Luoksesi Sun
TTITLE11=Voinko Luottaa
TTITLE12=Pieni Ja Lämpöinen
TTITLE13=Kerran Ainoastaan
TTITLE14=Hei
TTITLE15=Suo Itsellesi Aikaa
TTITLE16=Mikä Sulle Oikein Tuli
TTITLE17=Voitko Unohtaa
TTITLE18=Päästä Sydämmeesi Minut
TTITLE19=Jää Luokseni Mun
EXTD=TR.
EXTT0=
EXTT1=
EXTT2=
EXTT3=
EXTT4=
EXTT5=
EXTT6=
EXTT7=
EXTT8=
EXTT9=
EXTT10=
EXTT11=
EXTT12=
EXTT13=
EXTT14=
EXTT15=
EXTT16=
EXTT17=
EXTT18=
EXTT19=
PLAYORDER=
